<?xml version="1.0" encoding="UTF-8" standalone="no"?>
<svg
   xmlns:dc="http://purl.org/dc/elements/1.1/"
   xmlns:cc="http://creativecommons.org/ns#"
   xmlns:rdf="http://www.w3.org/1999/02/22-rdf-syntax-ns#"
   xmlns:svg="http://www.w3.org/2000/svg"
   xmlns="http://www.w3.org/2000/svg"
   xmlns:sodipodi="http://sodipodi.sourceforge.net/DTD/sodipodi-0.dtd"
   xmlns:inkscape="http://www.inkscape.org/namespaces/inkscape"
   height="48"
   width="48"
   version="1.1"
   id="svg4"
   sodipodi:docname="favorite_FILL0_wght400_GRAD0_opsz48.svg"
   inkscape:version="0.92.5 (2060ec1f9f, 2020-04-08)">
  <metadata
     id="metadata10">
    <rdf:RDF>
      <cc:Work
         rdf:about="">
        <dc:format>image/svg+xml</dc:format>
        <dc:type
           rdf:resource="http://purl.org/dc/dcmitype/StillImage" />
      </cc:Work>
    </rdf:RDF>
  </metadata>
  <defs
     id="defs8" />
  <sodipodi:namedview
     pagecolor="#ffffff"
     bordercolor="#666666"
     borderopacity="1"
     objecttolerance="10"
     gridtolerance="10"
     guidetolerance="10"
     inkscape:pageopacity="0"
     inkscape:pageshadow="2"
     inkscape:window-width="980"
     inkscape:window-height="480"
     id="namedview6"
     showgrid="false"
     inkscape:zoom="4.9166667"
     inkscape:cx="24"
     inkscape:cy="24"
     inkscape:window-x="0"
     inkscape:window-y="48"
     inkscape:window-maximized="0"
     inkscape:current-layer="svg4" />
  <path
     d="M24 41.95 21.95 40.1Q13.8 32.65 8.9 27.1Q4 21.55 4 15.85Q4 11.35 7.025 8.325Q10.05 5.3 14.5 5.3Q17.05 5.3 19.55 6.525Q22.05 7.75 24 10.55Q26.2 7.75 28.55 6.525Q30.9 5.3 33.5 5.3Q37.95 5.3 40.975 8.325Q44 11.35 44 15.85Q44 21.55 39.1 27.1Q34.2 32.65 26.05 40.1ZM24 23.15Q24 23.15 24 23.15Q24 23.15 24 23.15Q24 23.15 24 23.15Q24 23.15 24 23.15Q24 23.15 24 23.15Q24 23.15 24 23.15Q24 23.15 24 23.15Q24 23.15 24 23.15Q24 23.15 24 23.15Q24 23.15 24 23.15Q24 23.15 24 23.15Q24 23.15 24 23.15ZM24 38Q31.6 31 36.3 25.85Q41 20.7 41 15.85Q41 12.55 38.875 10.425Q36.75 8.3 33.5 8.3Q31 8.3 28.8 9.85Q26.6 11.4 25.2 14.3H22.75Q21.4 11.4 19.175 9.85Q16.95 8.3 14.5 8.3Q11.2 8.3 9.1 10.425Q7 12.55 7 15.85Q7 20.7 11.7 25.85Q16.4 31 24 38Z"
     id="path2"
     style="fill:#bfbfbf" />
</svg>
